<?xml version="1.0" encoding="utf-8"?>
<svg width="28px" height="24px" viewBox="0 0 28 24" version="1.1" xmlns:xlink="http://www.w3.org/1999/xlink" xmlns="http://www.w3.org/2000/svg">
  <desc>Created with Lunacy</desc>
  <g id="noun_filters_1245150">
    <path d="M8.2232 0C6.57856 0 5.18062 1.0618 4.72834 2.51685L0.986784 2.51685C0.41116 2.51685 0 2.94944 0 3.5C0 4.05056 0.452276 4.48315 1.0279 4.48315L4.76946 4.48315C5.18062 5.9382 6.61968 7 8.26432 7C9.95007 7 11.348 5.9382 11.8003 4.48315L26.9721 4.48315C27.5477 4.48315 28 4.05056 28 3.5C28 2.94944 27.5477 2.51685 26.9721 2.51685L11.8003 2.51685C11.3069 1.0618 9.90896 0 8.2232 0ZM8.26432 1.96629C9.12775 1.96629 9.86784 2.63483 9.86784 3.5C9.86784 4.36517 9.12775 5.03371 8.26432 5.03371C7.40088 5.03371 6.66079 4.36517 6.66079 3.5C6.66079 2.63483 7.40088 1.96629 8.26432 1.96629Z" id="Shape" fill="#000000" stroke="none" />
    <path d="M20.5991 0C18.9545 0 17.5565 1.0618 17.1043 2.51685L1.0279 2.51685C0.41116 2.51685 0 2.94944 0 3.5C0 4.05056 0.452276 4.48315 1.0279 4.48315L17.1043 4.48315C17.5154 5.9382 18.9545 7 20.5991 7C22.2849 7 23.6828 5.9382 24.1351 4.48315L26.9721 4.48315C27.5477 4.48315 28 4.05056 28 3.5C28 2.94944 27.5477 2.51685 26.9721 2.51685L24.1351 2.51685C23.6828 1.0618 22.2849 0 20.5991 0ZM20.6402 1.96629C21.5037 1.96629 22.2438 2.63483 22.2438 3.5C22.2438 4.36517 21.5037 5.03371 20.6402 5.03371C19.7768 5.03371 19.0367 4.36517 19.0367 3.5C19.0367 2.63483 19.7357 1.96629 20.6402 1.96629Z" transform="translate(0 8)" id="Shape" fill="#000000" stroke="none" />
    <path d="M13.1571 0C11.5125 0 10.1145 1.0618 9.66226 2.51685L1.0279 2.51685C0.41116 2.51685 0 2.94944 0 3.5C0 4.05056 0.452276 4.48315 1.0279 4.48315L9.70338 4.48315C10.1145 5.9382 11.5536 7 13.1982 7C14.884 7 16.2819 5.9382 16.7342 4.48315L26.9721 4.48315C27.5477 4.48315 28 4.05056 28 3.5C28 2.94944 27.5477 2.51685 26.9721 2.51685L16.6931 2.51685C16.2408 1.0618 14.8429 0 13.1571 0ZM13.1982 1.96629C14.0617 1.96629 14.8018 2.63483 14.8018 3.5C14.8018 4.36517 14.0617 5.03371 13.1982 5.03371C12.3348 5.03371 11.5947 4.36517 11.5947 3.5C11.6358 2.63483 12.3348 1.96629 13.1982 1.96629Z" transform="translate(0 17)" id="Shape" fill="#000000" stroke="none" />
  </g>
</svg>